:SAMPLES-PER-SECOND 30
:FULLY-SPECIFIED
:DEGREES
99
root  -21.227 38.1266 11.276 90.6859 -86.6032 -96.0048
RightUpLeg  -15.8501 -11.5259 9.58907
RightLeg  27.9268 -2.99309 -1.95438
RightFoot  -9.04743 0.0915702 -7.60168
RightToes  -8.73116e-010 0 -3.6325e-017
Spine  10.4559 -3.47218 14.9722
Spine1  11.4124 -1.55966 0.96825
HEad  2.70093 -4.37536 -3.33802
LeftShoulder1  -0.338318 4.39501 -31.8126
LeftArm  3.28317 2.93543 -47.4075
LeftForeArm  20.3263 -18.3351 -5.3206
LeftHand  -0.0204423 3.22732 0.116991
RightShoulder  -0.53807 -5.12414 26.4206
RightArm  11.3381 -2.57511 46.5088
RightForeArm  8.05986 15.0362 4.90609
RightHand  -0.226598 1.19014 -4.12466
LeftUpLeg  -4.07176 2.38952 6.45108
LeftLeg  63.6376 -3.04959 -6.07375
LeftFoot  10.4073 1.87949 -10.0543
LeftToes  -5.63919e-011 3.32596e-011 1.92487e-011
100
root  -22.5005 38.3594 11.1883 114.684 -86.4738 -120.211
RightUpLeg  -12.8135 -10.6222 8.94931
RightLeg  27.0565 -2.69373 -1.52563
RightFoot  -10.5757 -0.0218122 -7.43188
RightToes  -8.73116e-010 0 -3.6325e-017
Spine  10.5982 -3.01205 14.9357
Spine1  11.3812 -0.901263 0.5431
HEad  3.44583 -4.39839 -3.65438
LeftShoulder1  -0.255925 4.18552 -31.439
LeftArm  2.78359 3.08057 -47.1778
LeftForeArm  19.7156 -19.1419 -4.93047
LeftHand  -0.0277857 2.46669 0.593161
RightShoulder  -0.534915 -5.11907 26.3297
RightArm  13.9091 -1.13417 47.7132
RightForeArm  7.74615 17.7013 4.71235
RightHand  -0.222315 1.34954 -3.96289
LeftUpLeg  -9.13767 0.41704 6.00956
LeftLeg  66.2344 -2.40791 -5.3144
LeftFoot  8.23666 0.961414 -5.91294
LeftToes  -5.63919e-011 3.32596e-011 1.92487e-011
101
root  -23.8281 38.6397 11.112 142.152 -85.8235 -147.955
RightUpLeg  -9.33543 -9.59973 7.63406
RightLeg  25.6136 -2.09261 -0.692448
RightFoot  -11.8442 -0.111172 -7.23372
RightToes  -8.73116e-010 0 -3.6325e-017
Spine  10.7349 -2.60812 14.8568
Spine1  11.3613 -0.133374 -0.753301
HEad  3.98066 -3.63988 -3.90136
LeftShoulder1  -0.303132 4.31661 -31.1579
LeftArm  2.5713 3.43598 -46.5191
LeftForeArm  19.0548 -20.5275 -4.41431
LeftHand  -0.0220653 2.51094 0.325947
RightShoulder  -0.515358 -5.07285 26.026
RightArm  15.8223 0.100217 49.485
RightForeArm  6.71274 20.2864 4.54462
RightHand  -0.289566 2.34595 -4.54575
LeftUpLeg  -13.0333 -1.29714 5.29108
LeftLeg  65.2537 -1.54126 -3.01734
LeftFoot  6.24676 0.730055 -4.93849
LeftToes  -5.63919e-011 3.32596e-011 1.92487e-011
102
root  -25.1718 38.9 11.0099 161.12 -84.4356 -167.354
RightUpLeg  -5.60098 -8.37694 6.21016
RightLeg  23.8735 -1.49611 -0.107656
RightFoot  -13.0793 -0.191908 -6.80754
RightToes  -8.73116e-010 0 -3.6325e-017
Spine  11.1077 -2.05351 14.3223
Spine1  10.9185 0.597276 -1.72495
HEad  4.3922 -3.58007 -4.39165
LeftShoulder1  -0.297792 4.29685 -31.4192
LeftArm  1.71831 4.16951 -45.6564
LeftForeArm  18.5531 -21.6597 -4.13955
LeftHand  -0.0419471 1.97963 1.09156
RightShoulder  -0.43415 -4.84927 25.3699
RightArm  17.2545 0.755256 50.9293
RightForeArm  5.41783 23.1368 4.70097
RightHand  -0.324945 2.3072 -5.09783
LeftUpLeg  -15.9883 -2.41181 4.57866
LeftLeg  61.5893 -0.954384 -1.35291
LeftFoot  3.58706 0.337685 -2.73991
LeftToes  -5.63919e-011 3.32596e-011 1.92487e-011
103
root  -26.4962 39.1059 10.8799 171.31 -82.4951 -177.808
RightUpLeg  -2.07077 -7.30735 5.09896
RightLeg  21.9179 -0.515694 0.269445
RightFoot  -14.0803 -0.255572 -6.70148
RightToes  -8.73116e-010 0 -3.6325e-017
Spine  11.5731 -1.44646 13.7708
Spine1  10.3289 1.3646 -2.87317
HEad  4.8167 -2.80379 -4.45562
LeftShoulder1  -0.287585 4.27593 -31.1111
LeftArm  1.15238 5.15109 -45.0409
LeftForeArm  17.9415 -22.7978 -4.05128
LeftHand  -0.0493881 2.02065 1.35886
RightShoulder  -0.407993 -4.76506 25.3837
RightArm  18.2956 1.80028 51.6338
RightForeArm  6.46722 25.944 5.22271
RightHand  -0.311951 2.57572 -4.75503
LeftUpLeg  -18.2593 -2.66912 4.23797
LeftLeg  55.4147 -0.622841 -0.473133
LeftFoot  1.40138 0.156191 -1.51473
LeftToes  -5.63919e-011 3.32596e-011 1.92487e-011
104
root  -27.8054 39.2272 10.7595 174.318 -80.9917 178.951
RightUpLeg  1.45818 -7.00475 4.24843
RightLeg  19.8026 0.654872 0.567954
RightFoot  -15.1049 -0.323877 -6.74081
RightToes  -8.73116e-010 0 -3.6325e-017
Spine  11.5822 -1.1565 13.7512
Spine1  10.5444 1.87203 -4.27412
HEad  4.59473 -2.3988 -4.44718
LeftShoulder1  -0.265416 4.2224 -30.8101
LeftArm  0.169714 5.45408 -44.6082
LeftForeArm  18.285 -23.3386 -4.05926
LeftHand  -0.0468102 2.63259 1.40562
RightShoulder  -0.463451 -4.90436 26.2335
RightArm  20.3982 3.72955 51.6131
RightForeArm  7.01948 28.2168 5.72432
RightHand  -0.290992 2.77054 -4.35663
LeftUpLeg  -19.6357 -2.94352 4.29115
LeftLeg  46.9791 -1.15898 -0.904743
LeftFoot  -0.0379816 0.20109 -2.02447
LeftToes  -5.63919e-011 3.32596e-011 1.92487e-011
105
root  -29.1055 39.2976 10.6395 176.652 -79.5781 176.982
RightUpLeg  4.22768 -7.01026 3.45596
RightLeg  17.8791 2.16383 0.795169
RightFoot  -16.012 -0.382267 -6.7171
RightToes  -8.73116e-010 0 -3.6325e-017
Spine  11.1175 -0.796553 13.6074
Spine1  10.7589 2.20858 -5.1657
HEad  4.15558 -1.31845 -5.08018
LeftShoulder1  -0.258087 4.19438 -31.2157
LeftArm  0.128437 5.4958 -43.7238
LeftForeArm  17.8367 -23.3305 -4.08249
LeftHand  -0.0374357 2.81055 1.04364
RightShoulder  -0.411662 -4.75023 26.0634
RightArm  21.6287 5.11058 52.2687
RightForeArm  7.26797 29.924 6.12194
RightHand  -0.312811 3.04307 -4.53419
LeftUpLeg  -20.5812 -2.68677 4.2605
LeftLeg  36.2163 -2.86957 -1.86883
LeftFoot  0.150622 0.175326 -1.75043
LeftToes  -5.63919e-011 3.32596e-011 1.92487e-011
106
root  -30.4144 39.3132 10.4697 177.192 -79.1227 176.579
RightUpLeg  7.5443 -7.02324 2.97306
RightLeg  15.3993 2.63392 0.686015
RightFoot  -16.9209 -0.42111 -6.29663
RightToes  -8.73116e-010 0 -3.6325e-017
Spine  10.8384 -0.597657 12.6148
Spine1  11.0765 2.0039 -4.81924
HEad  4.10718 -0.905142 -5.04463
LeftShoulder1  -0.284148 4.25012 -31.9446
LeftArm  0.763814 5.40416 -42.8841
LeftForeArm  17.8856 -22.7206 -4.06723
LeftHand  -0.0243514 2.39362 0.410929
RightShoulder  -0.33902 -4.55118 25.2997
RightArm  22.5942 5.97408 52.773
RightForeArm  7.67219 31.3568 6.45606
RightHand  -0.352185 3.57054 -4.81407
LeftUpLeg  -20.3172 -1.62408 4.05991
LeftLeg  23.9001 -5.74519 -2.40899
LeftFoot  0.50768 0.301668 -2.9457
LeftToes  -5.63919e-011 3.32596e-011 1.92487e-011
